<svg xmlns="http://www.w3.org/2000/svg" width="304" height="56" viewBox="0 0 304 56" role="img" aria-label="Where to Find Me">
<style>.sp{transform-origin:16px 27px;animation:sp 6s ease-in-out infinite}@keyframes sp{0%,80%,100%{transform:rotate(0) scale(1)}88%{transform:rotate(90deg) scale(1.25)}}@media (prefers-reduced-motion:reduce){.sp{animation:none}}</style>
<path class="sp" d="M16 13 C17.4 22 18.2 25.6 30 27 C18.2 28.4 17.4 32 16 41 C14.6 32 13.8 28.4 2 27 C13.8 25.6 14.6 22 16 13 Z" fill="#1f2328"/>
<path d="M55.16 38L50.81 38L45.11 16.70L49.22 16.70L53.12 32.60L57.05 16.70L60.68 16.70L64.61 32.60L68.48 16.70L72.62 16.70L66.92 38L62.60 38L58.88 23.42L55.16 38ZM78.42 38L74.58 38L74.58 16.70L78.42 16.70L78.42 25.64L77.94 25.64Q78.18 24.26 78.90 23.38Q79.62 22.49 80.67 22.05Q81.72 21.62 82.98 21.62L82.98 21.62Q84.75 21.62 85.97 22.38Q87.18 23.15 87.80 24.53Q88.41 25.91 88.41 27.71L88.41 27.71L88.41 38L84.57 38L84.57 28.64Q84.57 26.69 83.91 25.71Q83.25 24.74 81.84 24.74L81.84 24.74Q80.28 24.74 79.35 25.76Q78.42 26.78 78.42 28.73L78.42 28.73L78.42 38ZM98.65 38.36L98.65 38.36Q96.25 38.36 94.48 37.33Q92.71 36.29 91.75 34.40Q90.79 32.51 90.79 29.99L90.79 29.99Q90.79 27.47 91.75 25.59Q92.71 23.72 94.47 22.67Q96.22 21.62 98.56 21.62L98.56 21.62Q100.84 21.62 102.56 22.64Q104.29 23.66 105.22 25.58Q106.15 27.50 106.15 30.20L106.15 30.20L106.15 31.07L94.78 31.07Q94.90 33.17 95.94 34.23Q96.97 35.30 98.68 35.30L98.68 35.30Q99.97 35.30 100.83 34.72Q101.68 34.13 102.01 33.08L102.01 33.08L105.94 33.32Q105.28 35.66 103.34 37.01Q101.41 38.36 98.65 38.36ZM94.78 28.49L94.78 28.49L102.19 28.49Q102.07 26.54 101.08 25.59Q100.09 24.65 98.56 24.65L98.56 24.65Q97.03 24.65 96.03 25.64Q95.02 26.63 94.78 28.49ZM112.49 38L108.65 38L108.65 21.98L112.25 21.98L112.40 26.42L112.07 26.36Q112.43 24.05 113.44 23.02Q114.44 21.98 116.18 21.98L116.18 21.98L117.65 21.98L117.65 25.28L116.15 25.28Q114.92 25.28 114.11 25.64Q113.30 26 112.90 26.77Q112.49 27.53 112.49 28.76L112.49 28.76L112.49 38ZM126.15 38.36L126.15 38.36Q123.75 38.36 121.98 37.33Q120.21 36.29 119.25 34.40Q118.29 32.51 118.29 29.99L118.29 29.99Q118.29 27.47 119.25 25.59Q120.21 23.72 121.97 22.67Q123.72 21.62 126.06 21.62L126.06 21.62Q128.34 21.62 130.06 22.64Q131.79 23.66 132.72 25.58Q133.65 27.50 133.65 30.20L133.65 30.20L133.65 31.07L122.28 31.07Q122.40 33.17 123.44 34.23Q124.47 35.30 126.18 35.30L126.18 35.30Q127.47 35.30 128.33 34.72Q129.18 34.13 129.51 33.08L129.51 33.08L133.44 33.32Q132.78 35.66 130.84 37.01Q128.91 38.36 126.15 38.36ZM122.28 28.49L122.28 28.49L129.69 28.49Q129.57 26.54 128.58 25.59Q127.59 24.65 126.06 24.65L126.06 24.65Q124.53 24.65 123.53 25.64Q122.52 26.63 122.28 28.49ZM152.87 38L149.45 38Q147.05 38 145.93 36.89Q144.80 35.78 144.80 33.41L144.80 33.41L144.80 18.23L148.64 18.23L148.64 33.05Q148.64 34.16 149.12 34.59Q149.60 35.03 150.62 35.03L150.62 35.03L152.87 35.03L152.87 38ZM152.87 24.95L142.28 24.95L142.28 21.98L152.87 21.98L152.87 24.95ZM161.88 38.36L161.88 38.36Q159.51 38.36 157.73 37.33Q155.94 36.29 154.97 34.40Q153.99 32.51 153.99 29.99L153.99 29.99Q153.99 27.44 154.97 25.57Q155.94 23.69 157.73 22.66Q159.51 21.62 161.88 21.62L161.88 21.62Q164.25 21.62 166.02 22.66Q167.79 23.69 168.77 25.57Q169.74 27.44 169.74 29.99L169.74 29.99Q169.74 32.51 168.77 34.40Q167.79 36.29 166.02 37.33Q164.25 38.36 161.88 38.36ZM161.88 35.24L161.88 35.24Q163.74 35.24 164.75 33.86Q165.75 32.48 165.75 29.99L165.75 29.99Q165.75 27.53 164.75 26.13Q163.74 24.74 161.88 24.74L161.88 24.74Q160.02 24.74 159.00 26.13Q157.98 27.53 157.98 29.99L157.98 29.99Q157.98 32.48 159.00 33.86Q160.02 35.24 161.88 35.24ZM183.29 38L179.39 38L179.39 16.70L193.64 16.70L193.64 20.09L181.16 20.09L183.29 17.90L183.29 27.68L181.16 25.91L193.10 25.91L193.10 29.27L181.16 29.27L183.29 27.50L183.29 38ZM199.95 38L196.11 38L196.11 21.98L199.95 21.98L199.95 38ZM200.04 19.85L196.05 19.85L196.05 16.43L200.04 16.43L200.04 19.85ZM207.70 38L203.86 38L203.86 21.98L207.34 21.98L207.49 26.48L207.04 26.30Q207.28 24.62 208.03 23.60Q208.78 22.58 209.86 22.10Q210.94 21.62 212.23 21.62L212.23 21.62Q214.00 21.62 215.22 22.40Q216.43 23.18 217.06 24.55Q217.69 25.91 217.69 27.71L217.69 27.71L217.69 38L213.85 38L213.85 28.94Q213.85 27.59 213.58 26.66Q213.31 25.73 212.70 25.23Q212.08 24.74 211.06 24.74L211.06 24.74Q209.53 24.74 208.62 25.82Q207.70 26.90 207.70 28.94L207.70 28.94L207.70 38ZM226.70 38.36L226.70 38.36Q224.66 38.36 223.18 37.34Q221.69 36.32 220.88 34.43Q220.07 32.54 220.07 29.99L220.07 29.99Q220.07 27.44 220.88 25.55Q221.69 23.66 223.19 22.64Q224.69 21.62 226.70 21.62L226.70 21.62Q228.38 21.62 229.66 22.31Q230.93 23 231.59 24.26L231.59 24.26L231.59 16.70L235.43 16.70L235.43 38L231.77 38L231.68 35.63Q231.02 36.92 229.70 37.64Q228.38 38.36 226.70 38.36ZM227.87 35.24L227.87 35.24Q229.07 35.24 229.90 34.64Q230.72 34.04 231.16 32.86Q231.59 31.67 231.59 29.99L231.59 29.99Q231.59 28.28 231.16 27.11Q230.72 25.94 229.90 25.34Q229.07 24.74 227.87 24.74L227.87 24.74Q226.13 24.74 225.10 26.13Q224.06 27.53 224.06 29.99L224.06 29.99Q224.06 32.39 225.10 33.81Q226.13 35.24 227.87 35.24ZM249.91 38L246.01 38L246.01 16.70L251.26 16.70L257.14 33.20L263.02 16.70L268.27 16.70L268.27 38L264.37 38L264.37 23.30L259.00 37.97L255.28 37.97L249.91 23.30L249.91 38ZM278.90 38.36L278.90 38.36Q276.50 38.36 274.73 37.33Q272.96 36.29 272.00 34.40Q271.04 32.51 271.04 29.99L271.04 29.99Q271.04 27.47 272.00 25.59Q272.96 23.72 274.72 22.67Q276.47 21.62 278.81 21.62L278.81 21.62Q281.09 21.62 282.82 22.64Q284.54 23.66 285.47 25.58Q286.40 27.50 286.40 30.20L286.40 30.20L286.40 31.07L275.03 31.07Q275.15 33.17 276.19 34.23Q277.22 35.30 278.93 35.30L278.93 35.30Q280.22 35.30 281.08 34.72Q281.93 34.13 282.26 33.08L282.26 33.08L286.19 33.32Q285.53 35.66 283.60 37.01Q281.66 38.36 278.90 38.36ZM275.03 28.49L275.03 28.49L282.44 28.49Q282.32 26.54 281.33 25.59Q280.34 24.65 278.81 24.65L278.81 24.65Q277.28 24.65 276.28 25.64Q275.27 26.63 275.03 28.49Z" fill="#1f2328"/>
<rect x="44" y="50" width="243.1" height="1.5" rx=".75" fill="#1f2328" opacity=".25"/>
</svg>